<?xml version="1.0"?>
<svg width="267" height="143" xmlns="http://www.w3.org/2000/svg" xmlns:svg="http://www.w3.org/2000/svg">
 <!-- Created with SVG-edit - https://github.com/SVG-Edit/svgedit-->
 <title>MALWebDesign</title>
 <g class="layer">
  <title>Layer 1</title>
  <g id="svg_8">
   <rect fill="#ff0061" height="140.000009" id="svg_2" stroke="#000000" stroke-opacity="0" stroke-width="0" width="264.000014" x="1.500001" y="1.500002"/>
   <text fill="#ffffff" font-family="Sans-serif" font-size="74" font-style="normal" font-weight="normal" id="svg_3" stroke="#e5e5e5" text-anchor="middle" transform="matrix(0.763269 0 0 0.587188 104.884 96.085)" x="66.758302" xml:space="preserve" y="-57.077245">M.A.L.</text>
   <path d="m10.314897,128.128918c-2.777593,-3.740335 4.350641,-3.840454 3.230763,-7.986687c2.047522,-5.494312 7.371294,-8.819998 8.155303,-15.063446c-2.159211,-1.735234 -3.401045,-5.931824 0.718367,-5.433602c3.020925,-2.62306 2.643372,-7.99083 3.551861,-11.929999c0.851041,-6.357904 1.043765,-12.792992 1.409307,-19.203132c-3.495396,-0.309705 -7.077255,-0.093977 -10.483081,-1.127148c0.097967,-4.263009 7.028022,-2.627283 7.343434,-6.649933c5.0388,-0.105035 0.279097,-8.786604 -1.77289,-10.857883c-2.626523,-3.494123 -4.375922,-9.009961 -2.379207,-13.325147c2.855954,-2.188899 9.3135,-0.856499 9.021619,-6.608886c-1.942289,-1.277135 -4.408316,-0.466104 -6.585246,-0.691963c0.133877,-2.682343 0.267751,-5.364681 0.401627,-8.047024c2.87896,-0.255447 5.757927,-0.510914 8.636886,-0.766384c-1.461321,-1.751958 -3.64835,-3.041302 -4.195628,-5.519538c1.861511,-3.529904 6.347885,-3.218304 9.561871,-3.184929c3.125241,-0.248663 8.823337,2.156013 4.563442,6.029281c-0.345269,0.951173 -3.70552,3.316209 -1.628932,3.058376c2.658823,0 5.31764,0 7.976456,0c-0.007641,2.622232 -0.06875,5.270522 0.465111,7.836692c-2.029562,1.74354 -8.610887,-1.489335 -6.736973,3.890342c2.110013,2.249192 5.341577,2.189835 8.017841,3.180389c1.56102,0.1799 2.802813,0.649136 2.240277,2.75398c0.293407,3.907975 -0.561339,7.839174 -2.890021,10.805726c-1.648428,3.095517 -5.350772,6.970748 -4.254756,10.55384c2.073618,-0.389368 3.739367,1.18122 2.08313,2.947472c1.699686,1.451702 7.684926,1.119257 6.390398,4.753645c-3.032426,1.157921 -6.290018,0.675516 -9.43612,0.793676c0.837687,9.920599 1.995938,19.842138 3.931301,29.556977c1.130808,2.155707 5.622805,3.812524 1.936277,6.622871c-1.37581,5.233595 3.018601,9.152308 5.778478,12.511356c3.034461,2.621621 1.562203,7.896549 5.855072,8.737837c3.380823,3.777833 -4.641627,3.677255 -6.701301,3.685494c-13.635277,0.169599 -27.285263,0.406878 -40.915206,-0.099964c-1.115773,-0.162438 -2.494278,-0.125277 -3.289459,-1.222294l-0.000003,0.000004z" fill="#ffffff" id="svg_5" opacity="0.5" stroke="#720572" stroke-width="0"/>
   <text fill="#ffaaaa" font-family="Sans-serif" font-size="23" id="svg_7" opacity="0.5" stroke="#000000" stroke-dasharray="null" stroke-linecap="null" stroke-linejoin="null" stroke-opacity="0" stroke-width="2" text-anchor="middle" transform="matrix(1.04029 0 0 0.950782 3.08484 1.53587)" x="141.292841" xml:space="preserve" y="101.756764">Desarrollo Web</text>
  </g>
 </g>
</svg>